<?xml version="1.0" encoding="UTF-8"?>
<svg id="Layer_2" data-name="Layer 2" xmlns="http://www.w3.org/2000/svg" viewBox="0 0 443.4593 433.0255">
  <g id="katman_1" data-name="katman 1" fill="#FFD700">
    <g id="aeeahZ">
      <g>
        <path d="m131.5155,359.85c-2.6118-18.9681-5.8553-37.7077-10.0856-56.3222-8.0135-35.2613-29.6706-55.9642-64.6619-63.7553-16.3282-3.6356-32.737-6.641-49.2873-8.9642-1.8977-.2664-3.7876-.5881-7.4807-1.1657,19.3475-2.8209,36.7579-5.9282,54.1295-9.3946,39.0754-7.7975,61.2177-31.5229,68.7905-70.1149,3.2748-16.6886,6.4042-33.3803,9.2335-50.3929.8188,5.4269,1.6407,10.8533,2.4558,16.2807,2.0347,13.5485,4.8393,26.9297,7.8862,40.2949,7.9022,34.6626,29.2623,55.1752,63.7116,63.0406,18.4941,4.2225,37.1449,7.3563,56.6946,10.1062-15.2917,2.6606-29.8143,4.9892-44.2533,7.7546-14.837,2.8416-29.3253,6.9138-42.4802,14.6757-19.0331,11.2302-27.7288,29.4478-33.2407,49.7138-4.9082,18.0461-7.7508,36.489-10.2186,54.9963-.1455,1.0915.3855,2.4778-1.1934,3.2468Z"/>
        <path d="m443.4593,141.6159c-21.1133,2.8584-40.5154,6.1332-59.7034,10.8347-33.2363,8.1437-53.0303,28.9442-60.8957,62.0086-4.4578,18.7394-7.595,37.6752-10.5353,58.7298-1.7795-11.2311-3.2132-20.5291-4.7332-29.8129-2.0446-12.4874-4.8889-24.7827-8.4132-36.9492-8.8497-30.5505-30.1733-47.0445-60.0674-54.3655-18.5934-4.5535-37.4106-7.7217-56.4854-10.9459,7.4104-1.129,14.8421-2.1354,22.2272-3.4111,18.9916-3.2805,37.9869-6.5046,55.7475-14.5972,23.3525-10.6405,34.4008-30.4124,40.6503-53.9059,4.6539-17.4952,7.4392-35.331,9.9607-53.2209.2048-1.4529.5017-2.8929,1.0924-6.2546,2.7523,19.2104,5.9016,36.3689,9.2343,53.5128,7.9956,41.1311,33.6829,62.8722,73.7873,69.9972,14.8223,2.6333,29.5905,5.5354,44.5366,7.4065.6968.0872,1.37.3625,3.5973.9734Z"/>
        <path d="m195.4665,122.0123c-1.7604-9.1527-3.2575-16.4901-4.5725-23.86-3.5291-19.7786-15.8767-30.3087-35.1044-33.7115-6.9255-1.2257-13.8476-2.4712-22.3205-3.9844,10.928-1.725,20.3016-3.1867,29.4945-5.7067,14.4909-3.9723,23.1449-13.2979,26.9064-27.6322,2.2773-8.6783,3.675-17.521,5.9437-27.1174.0014,40.3169,20.3557,59.8161,59.7355,60.7762-2.1751.3514-4.3521.6907-6.5246,1.0573-2.376.401-4.7587.7732-7.1198,1.2506-32.1817,6.5072-40.3869,15.2955-44.8046,47.9237-.4182,3.0885-.9131,6.1666-1.6339,11.0044Z"/>
      </g>
    </g>
  </g>
</svg>
